<?xml version="1.0" standalone="no"?>
<!DOCTYPE svg PUBLIC "-//W3C//DTD SVG 20010904//EN"
 "http://www.w3.org/TR/2001/REC-SVG-20010904/DTD/svg10.dtd">
<svg version="1.0" xmlns="http://www.w3.org/2000/svg"
 width="736.000000pt" height="686.000000pt" viewBox="0 0 736.000000 686.000000"
 preserveAspectRatio="xMidYMid meet">

<g transform="translate(0.000000,686.000000) scale(0.100000,-0.100000)"
fill="#000000" stroke="none">
<path d="M0 5315 l0 -1546 29 15 c15 8 39 17 53 20 14 2 54 15 89 29 163 63
260 97 326 117 51 15 79 30 93 48 70 90 80 107 80 134 0 16 -6 31 -15 34 -8 4
-15 17 -15 30 0 18 6 24 21 24 20 0 21 4 15 48 -4 26 -9 72 -11 102 -3 30 -8
61 -11 70 -4 8 -8 17 -8 20 -1 3 -7 14 -13 25 -5 11 -16 44 -23 74 -7 30 -19
65 -26 79 -15 29 -3 62 21 62 8 0 15 6 15 13 0 17 38 87 60 112 11 12 18 34
18 53 -1 17 6 40 15 50 10 10 17 30 17 44 0 13 11 47 25 74 14 27 25 54 25 59
0 9 66 35 91 35 6 0 22 9 36 20 14 11 36 20 48 20 27 0 37 22 30 64 -4 18 1
52 10 79 13 40 14 58 6 99 -9 39 -8 55 3 76 16 31 33 85 40 124 6 38 14 48 43
59 13 5 23 15 21 21 -5 14 -6 12 52 81 39 47 50 80 30 92 -11 7 -14 55 -3 55
3 0 14 -7 24 -16 30 -27 48 -12 39 35 -8 47 -5 54 21 40 16 -8 21 -5 30 15 11
23 15 24 80 21 37 -2 73 -6 79 -10 7 -4 14 2 17 14 6 24 14 25 60 12 51 -15
53 1 11 82 -5 10 -6 22 -3 27 3 5 -3 13 -12 19 -16 9 -14 10 9 11 15 0 34 -7
42 -16 9 -8 16 -12 16 -8 0 3 7 1 15 -6 21 -17 23 -13 29 50 5 62 30 131 39
109 3 -8 6 1 6 20 2 57 40 191 57 198 8 3 10 18 7 41 -2 20 -1 48 4 61 5 13 6
44 1 70 -19 109 -20 121 -10 121 5 0 13 -24 16 -54 6 -42 12 -55 30 -64 13 -5
28 -7 34 -3 9 5 42 130 42 157 0 2 -69 4 -152 4 l-153 0 -20 -45 c-11 -25 -23
-45 -27 -45 -3 0 -10 -9 -13 -20 -3 -11 -13 -20 -21 -20 -8 0 -14 -7 -14 -16
0 -8 -16 -49 -35 -91 -19 -42 -35 -82 -35 -90 0 -7 -7 -25 -16 -38 -9 -14 -17
-48 -18 -76 -1 -44 -4 -53 -23 -60 -16 -6 -39 -42 -75 -116 -28 -59 -53 -117
-55 -127 -2 -11 -10 -27 -18 -36 -8 -9 -15 -22 -15 -29 0 -20 -42 -111 -51
-111 -5 0 -9 5 -9 12 0 6 -7 3 -15 -8 -14 -18 -14 -18 -15 10 0 43 21 159 32
173 5 6 10 32 11 57 1 32 6 45 15 41 7 -3 12 4 12 18 0 13 4 27 9 33 4 5 14
32 21 59 7 28 23 68 35 90 12 22 26 54 29 72 6 25 14 33 37 38 22 5 34 17 51
56 13 27 26 49 30 49 5 0 8 7 8 16 0 19 40 77 48 70 6 -7 32 41 32 58 0 7 11
23 25 36 14 13 25 27 25 32 0 4 -340 8 -755 8 l-755 0 0 -1545z"/>
<path d="M1530 6845 c0 -8 5 -15 10 -15 6 0 10 7 10 15 0 8 -4 15 -10 15 -5 0
-10 -7 -10 -15z"/>
<path d="M2275 6852 c-12 -8 -60 -98 -69 -129 -6 -19 -3 -23 12 -23 11 0 23 7
26 16 3 9 15 14 28 12 17 -2 23 4 30 28 17 64 90 80 134 29 16 -18 24 -23 24
-13 0 8 16 31 35 51 l36 37 -123 0 c-68 0 -127 -4 -133 -8z"/>
<path d="M2546 6844 c-3 -9 -6 -20 -6 -24 0 -15 39 -32 53 -23 21 13 58 14 73
2 18 -15 69 8 83 38 l11 23 -104 0 c-85 0 -105 -3 -110 -16z"/>
<path d="M2850 6856 c0 -2 7 -6 15 -10 8 -3 15 -1 15 4 0 6 -7 10 -15 10 -8 0
-15 -2 -15 -4z"/>
<path d="M4665 6850 c3 -5 12 -10 20 -10 8 0 17 5 20 10 4 6 -5 10 -20 10 -15
0 -24 -4 -20 -10z"/>
<path d="M4720 6849 c0 -5 8 -9 18 -8 9 2 37 -4 62 -13 25 -8 71 -23 103 -33
32 -10 57 -24 57 -32 0 -9 13 -13 40 -13 57 0 153 -27 170 -48 8 -11 31 -26
50 -35 39 -18 66 -46 72 -74 2 -10 12 -18 23 -18 11 0 21 -8 23 -18 2 -9 8
-17 13 -17 5 0 9 -7 9 -15 0 -8 4 -15 10 -15 5 0 12 -11 16 -25 3 -14 12 -25
20 -25 10 0 11 -6 4 -25 -9 -22 -7 -27 16 -35 14 -6 22 -15 19 -21 -4 -6 2
-13 14 -16 23 -6 28 -32 9 -51 -9 -9 -8 -12 6 -12 13 0 16 -5 11 -20 -4 -11
-7 -30 -9 -43 -1 -13 -5 -28 -9 -34 -4 -6 -5 -18 -1 -26 3 -10 -4 -17 -23 -22
-15 -4 -23 -9 -16 -12 8 -3 6 -15 -8 -38 -12 -19 -18 -39 -14 -45 4 -6 -5 -10
-21 -10 l-26 0 23 -19 c29 -23 23 -31 -27 -35 -22 -2 -42 -4 -46 -5 -12 -1
-10 -49 2 -56 18 -11 11 -35 -10 -35 -12 0 -20 7 -20 17 0 15 -1 15 -18 0 -10
-10 -29 -17 -41 -17 -19 0 -23 -4 -19 -24 4 -17 1 -23 -9 -19 -7 3 -13 -2 -13
-11 0 -22 -40 -21 -41 2 0 14 -2 14 -9 -3 -8 -18 -9 -17 -9 8 -1 28 -13 33
-58 21 -35 -9 -27 -29 15 -41 l37 -10 -37 -2 c-31 -1 -38 -5 -38 -21 0 -17 -7
-20 -40 -20 -31 0 -40 4 -41 18 0 11 -6 5 -16 -15 -9 -18 -19 -33 -23 -33 -4
0 -14 15 -23 33 l-16 32 0 -27 c-1 -19 -6 -28 -17 -28 -25 0 -44 -26 -44 -60
0 -17 -7 -38 -15 -46 -17 -17 -18 -14 -15 36 2 54 10 70 32 70 19 0 20 4 14
46 -3 25 -3 57 0 71 6 20 11 24 33 20 23 -5 24 -4 8 8 -18 13 -23 40 -8 50 5
3 11 -3 14 -12 3 -15 6 -14 14 7 8 19 7 26 -3 28 -12 3 -12 7 0 24 8 11 12 26
9 34 -3 8 7 28 21 45 14 17 26 36 26 44 0 7 7 15 15 19 8 3 15 14 15 25 0 11
5 23 10 26 6 3 10 14 10 23 0 9 9 28 20 42 11 14 20 34 20 45 0 15 2 17 9 6 7
-11 10 -9 16 8 4 13 5 25 2 27 -5 6 -87 -73 -87 -84 0 -5 -14 -22 -31 -40 -31
-32 -69 -96 -69 -118 0 -6 -11 -19 -24 -28 -13 -8 -27 -29 -31 -45 -7 -33 -41
-81 -56 -81 -5 0 -14 11 -19 25 -13 35 -31 32 -24 -5 9 -45 -4 -100 -21 -93
-19 7 -19 23 0 23 11 0 15 11 15 40 l0 40 -60 0 -60 0 0 40 c0 22 5 40 10 40
14 0 12 30 -4 59 -14 25 -16 23 -40 -24 l-13 -25 -13 30 c-16 38 -24 38 -41
-1 -11 -28 -14 -30 -24 -15 -11 14 -14 14 -25 2 -6 -9 -9 -20 -5 -26 3 -5 2
-10 -4 -10 -5 0 -11 -14 -13 -32 -3 -29 -9 -35 -55 -53 -29 -11 -53 -25 -53
-32 0 -14 -57 -63 -74 -63 -7 0 -21 -9 -31 -20 -10 -11 -28 -20 -39 -20 -16 0
-18 -2 -7 -9 8 -5 11 -16 8 -26 -4 -9 -11 -13 -17 -10 -6 4 -10 -5 -10 -19 0
-16 -6 -26 -15 -26 -8 0 -15 -5 -15 -11 0 -6 -29 -40 -65 -76 -36 -35 -65 -70
-65 -78 0 -7 -7 -18 -15 -25 -8 -7 -15 -21 -15 -31 0 -11 -4 -19 -10 -19 -5 0
-10 -4 -10 -10 0 -5 13 -10 29 -10 37 0 48 -16 28 -38 -14 -16 -13 -19 9 -39
21 -19 26 -20 31 -7 3 9 0 20 -7 24 -18 11 5 23 30 15 14 -5 20 -2 20 9 0 12
10 16 35 16 19 0 35 -4 35 -8 0 -13 107 -7 124 8 9 7 26 10 40 6 14 -3 28 -1
32 5 4 7 21 9 46 5 21 -4 47 -2 58 4 11 6 49 13 85 16 l65 5 0 -29 c0 -28 -3
-30 -60 -41 -38 -8 -60 -17 -60 -26 0 -8 -16 -16 -40 -20 -30 -5 -40 -11 -40
-26 0 -22 3 -22 48 -10 20 6 32 6 32 0 0 -19 49 -9 55 11 9 27 25 25 25 -2 0
-29 20 -10 24 23 6 42 17 59 41 59 23 0 55 28 55 48 0 7 6 12 14 12 8 0 18 9
21 20 5 16 15 20 46 20 32 0 39 -3 39 -20 0 -16 -7 -20 -35 -20 -28 0 -35 -4
-35 -20 0 -11 -5 -20 -11 -20 -7 0 -8 -14 -4 -40 l7 -40 -46 0 c-41 0 -48 -3
-56 -26 -16 -40 -13 -94 5 -94 9 0 15 -9 15 -24 0 -19 6 -24 38 -29 21 -4 38
-2 40 3 2 6 17 10 33 10 22 0 29 5 29 20 0 11 4 20 9 20 4 0 3 -18 -2 -40 -10
-35 -15 -40 -39 -40 -21 0 -28 -5 -28 -20 0 -21 -27 -40 -59 -40 -12 0 -21 -4
-21 -10 0 -5 -18 -10 -40 -10 -29 0 -40 -4 -40 -15 0 -17 -16 -20 -26 -4 -8
14 -91 3 -121 -17 -12 -8 -38 -14 -58 -14 -19 0 -35 -4 -35 -10 0 -5 -19 -10
-42 -11 -33 0 -38 -2 -23 -9 18 -7 18 -9 4 -15 -10 -3 -23 -5 -30 -4 -26 6
-69 -11 -69 -26 0 -9 -9 -15 -22 -15 -40 0 -67 -11 -70 -29 -2 -10 -13 -16
-33 -16 -26 0 -30 -4 -30 -27 1 -26 -2 -28 -42 -28 -34 0 -43 -4 -43 -17 -1
-17 -67 -66 -93 -69 -7 -1 -18 -2 -25 -3 -7 0 -12 -9 -10 -18 2 -13 -4 -18
-18 -18 -12 -1 -28 -6 -35 -12 -12 -9 -90 -27 -124 -28 -13 0 -35 -21 -35 -33
0 -5 -10 -9 -22 -8 -17 1 -23 -5 -23 -19 0 -16 -8 -21 -35 -23 -57 -4 -80 -12
-80 -26 0 -7 -14 -16 -31 -20 -17 -3 -43 -14 -57 -25 -15 -10 -45 -22 -67 -27
-26 -6 -43 -17 -50 -32 -5 -12 -15 -22 -22 -22 -7 0 -13 -4 -13 -10 0 -5 -9
-10 -20 -10 -10 0 -23 -6 -27 -13 -4 -7 -26 -24 -48 -37 -22 -14 -49 -32 -59
-42 -11 -10 -36 -21 -55 -24 -20 -4 -45 -11 -56 -17 -11 -6 -26 -10 -32 -9 -7
2 -13 -4 -13 -12 0 -21 -14 -23 -104 -13 -50 6 -99 18 -128 33 -26 13 -63 24
-82 24 -19 0 -38 5 -41 10 -4 6 -14 10 -23 9 -32 -3 -40 1 -38 18 1 15 -13 23
-73 39 -10 3 -11 7 -2 18 8 10 23 13 47 9 33 -5 34 -5 34 27 0 36 -57 100 -90
100 -26 0 -35 17 -19 37 11 13 10 18 -7 32 -37 30 -45 78 -41 237 3 82 8 163
12 180 8 36 -7 71 -54 123 -29 32 -32 34 -44 17 -11 -15 -21 -17 -58 -10 -24
5 -59 7 -77 5 -21 -2 -41 4 -52 14 -11 10 -26 14 -38 11 -16 -5 -21 0 -26 26
-5 25 -9 30 -16 18 -5 -8 -12 -12 -15 -8 -4 3 -33 -3 -65 -14 -65 -22 -89 -49
-109 -124 -6 -22 -20 -49 -31 -59 -11 -10 -17 -21 -14 -26 2 -4 -5 -13 -17
-19 -19 -11 -20 -12 -3 -24 9 -7 14 -18 10 -24 -3 -6 -2 -13 3 -16 5 -4 12 -2
16 4 14 22 35 10 35 -21 0 -30 1 -31 40 -27 26 2 40 -1 40 -8 0 -7 8 -10 20
-7 23 6 27 23 5 23 -8 0 -15 5 -15 10 0 6 14 10 30 10 27 0 30 -2 24 -25 -4
-14 -2 -25 4 -25 7 0 9 -32 6 -87 -3 -58 -1 -83 5 -73 15 22 24 5 16 -31 -5
-21 -10 -27 -15 -19 -9 15 -50 -66 -50 -100 0 -12 -5 -30 -10 -41 -7 -12 -7
-25 -1 -37 6 -11 5 -25 -2 -39 -11 -20 -15 -23 -34 -23 -4 0 -2 -5 5 -12 7 -7
12 -15 12 -19 0 -11 -58 -31 -69 -24 -6 3 -11 1 -11 -4 0 -6 -10 -11 -22 -11
-13 0 -34 -6 -48 -13 -14 -7 -46 -14 -72 -15 -41 -1 -48 1 -48 17 0 14 -6 17
-25 13 -18 -3 -25 0 -25 12 0 9 -6 16 -14 16 -8 0 -18 9 -21 20 -3 11 -10 20
-15 20 -4 0 -10 10 -14 23 -5 17 -8 19 -15 8 -5 -8 -16 -11 -29 -7 -18 6 -21
1 -26 -41 -4 -26 -2 -82 5 -123 6 -41 13 -122 16 -180 2 -58 4 -120 5 -138 2
-44 -14 -59 -46 -44 -21 9 -27 8 -36 -6 -8 -15 -11 -15 -20 -2 -9 14 -11 13
-14 -11 0 -7 -20 -17 -43 -24 -143 -43 -275 -151 -434 -360 -67 -87 -72 -101
-64 -154 10 -63 14 -94 23 -176 6 -56 15 -83 47 -135 48 -78 80 -120 91 -120
17 0 141 -139 165 -184 13 -25 30 -46 36 -46 7 0 13 -8 13 -17 0 -16 10 -18
73 -18 64 0 72 2 75 20 1 14 -11 29 -45 50 -53 34 -89 86 -78 113 11 25 13 52
3 52 -4 0 -8 9 -8 20 0 11 5 20 10 20 6 0 10 -8 10 -17 0 -15 2 -14 15 3 10
13 14 15 15 5 0 -17 46 -61 64 -61 7 0 19 -11 26 -25 7 -13 17 -22 21 -19 4 2
12 -3 17 -12 8 -14 12 -15 38 -1 67 35 81 82 88 299 3 80 10 139 20 168 18 47
41 234 32 256 -6 15 -20 215 -19 254 2 39 8 70 13 72 11 3 88 -52 102 -74 22
-34 79 -59 115 -52 16 3 38 17 48 31 11 14 31 38 45 53 31 34 47 58 60 88 5
12 14 22 19 22 5 0 13 10 17 22 4 12 20 33 35 47 16 14 29 36 29 48 0 13 6 23
13 23 19 0 67 49 67 69 0 11 -7 22 -16 25 -10 4 -13 13 -9 25 4 13 -2 25 -20
39 -14 11 -25 25 -25 32 0 18 -27 40 -49 40 -14 0 -19 5 -15 15 8 19 19 19 38
0 8 -8 19 -15 25 -15 6 0 11 -4 11 -10 0 -5 17 -17 37 -25 21 -9 44 -22 53
-29 8 -7 30 -18 48 -24 18 -6 41 -21 51 -33 21 -26 79 -37 141 -28 46 7 100
-6 100 -23 0 -15 32 -37 54 -38 17 0 50 -23 118 -82 17 -16 34 -28 37 -28 10
0 39 -54 45 -82 2 -15 9 -36 16 -47 6 -12 8 -26 5 -31 -3 -5 -1 -11 5 -15 5
-3 10 -17 10 -31 0 -13 6 -24 13 -24 9 0 9 -2 -1 -9 -11 -7 -11 -11 1 -23 8
-8 18 -38 22 -66 4 -29 10 -50 14 -48 4 3 6 -10 6 -27 0 -18 8 -50 19 -72 11
-22 23 -65 27 -95 10 -82 29 -141 53 -170 17 -19 27 -60 15 -60 -5 0 -9 -7 -9
-15 0 -8 5 -14 12 -12 7 1 12 -5 13 -13 0 -8 6 -34 13 -56 7 -23 9 -49 6 -57
-3 -9 10 -42 31 -76 21 -33 35 -67 32 -75 -3 -8 -3 -16 1 -18 8 -4 52 -150 52
-173 0 -10 5 -13 11 -9 8 5 10 -2 7 -23 -4 -26 -1 -30 16 -26 12 2 15 1 9 -3
-7 -3 -13 -12 -13 -19 0 -7 -6 -16 -12 -18 -9 -4 -10 -8 -3 -14 6 -4 21 -32
35 -61 13 -30 32 -58 42 -63 19 -10 26 -69 8 -69 -5 0 -10 -7 -10 -15 0 -8 16
-19 38 -24 21 -6 46 -17 57 -25 18 -14 18 -15 3 -16 -22 0 -23 -10 -4 -36 13
-16 18 -17 36 -6 23 14 31 9 63 -40 10 -16 23 -28 30 -28 6 0 19 -5 27 -10 22
-15 -6 -30 -42 -23 -17 3 -28 1 -28 -6 0 -6 14 -11 30 -11 34 0 38 -7 13 -25
-15 -11 -14 -14 5 -33 12 -12 29 -22 37 -22 8 0 15 -8 15 -18 0 -23 39 -42 85
-42 44 0 46 -20 3 -21 -31 0 -32 -1 -9 -10 13 -5 32 -7 41 -4 15 5 64 -24 81
-47 3 -5 58 -11 122 -15 117 -6 117 -6 117 17 0 16 4 21 16 16 9 -3 27 -6 41
-6 20 0 24 -4 20 -19 -3 -14 0 -17 14 -14 11 3 18 13 17 21 -2 12 10 18 52 25
68 11 408 1 476 -13 41 -9 225 -9 486 1 10 0 23 9 28 20 6 10 18 19 28 19 16
-1 16 -2 -1 -14 -16 -12 -16 -14 -1 -20 23 -9 24 -8 25 22 1 27 1 27 11 -5 6
-18 16 -33 23 -33 6 0 30 -18 53 -40 22 -22 50 -40 61 -40 11 0 23 -4 26 -10
3 -5 15 -10 26 -10 10 0 19 -4 19 -9 0 -27 131 -74 144 -52 4 6 18 11 32 11
14 0 27 7 30 15 4 8 12 15 20 15 8 0 14 5 14 10 0 10 82 94 126 130 19 16 139
16 159 0 6 -4 29 -11 53 -15 23 -4 42 -11 42 -17 0 -5 8 -7 19 -3 20 6 85 -40
76 -55 -3 -5 1 -14 8 -22 21 -21 28 -58 11 -58 -19 0 -30 -30 -16 -39 12 -7
-31 -61 -49 -61 -6 0 -8 -4 -5 -9 3 -5 -7 -14 -23 -21 -16 -6 -41 -25 -55 -41
-14 -16 -32 -29 -39 -29 -7 0 -19 -6 -25 -12 -7 -7 -17 -14 -22 -14 -6 -1 -14
-2 -19 -3 -5 0 -13 -10 -16 -21 -3 -11 -13 -20 -21 -20 -8 0 -13 -4 -10 -9 7
-11 -49 -25 -64 -16 -6 4 -26 1 -44 -5 -19 -6 -60 -13 -92 -15 -105 -8 -169
-17 -181 -27 -7 -6 -19 -8 -27 -5 -8 3 -17 -1 -20 -9 -3 -8 -14 -14 -24 -14
-10 0 -22 -3 -26 -7 -7 -8 -12 -8 -81 -11 -27 -2 -36 -5 -26 -11 11 -7 9 -10
-8 -16 -24 -7 -36 -1 -36 18 0 7 -9 12 -20 13 -11 0 -33 6 -50 13 -20 8 -31 9
-33 2 -2 -6 -10 -11 -17 -11 -7 0 -15 -18 -19 -45 -4 -25 -11 -45 -15 -45 -14
0 -32 27 -28 41 2 8 2 11 0 7 -9 -15 -25 -8 -19 8 8 21 -21 54 -48 55 -21 0
-21 1 -1 10 28 12 -66 5 -125 -10 -32 -9 -46 -9 -48 -1 -2 6 -19 -6 -38 -25
-19 -20 -32 -41 -29 -46 4 -5 1 -9 -4 -9 -6 0 -11 9 -11 20 0 26 -2 25 -39 -7
-17 -15 -41 -28 -53 -28 -29 0 -36 -25 -9 -32 20 -5 22 -11 19 -59 -2 -30 -6
-54 -10 -54 -12 0 -10 -38 2 -45 6 -3 10 2 11 12 0 12 4 9 11 -10 7 -21 15
-26 29 -22 14 5 19 1 19 -14 0 -10 -3 -27 -6 -36 -5 -13 -8 -14 -15 -3 -6 9
-9 7 -9 -9 0 -13 -4 -23 -9 -23 -5 0 -13 -9 -16 -20 -6 -18 -15 -20 -86 -20
-61 0 -79 -3 -79 -14 0 -18 -22 -26 -76 -26 -26 0 -43 -4 -41 -11 3 -14 -80
-42 -110 -36 -16 3 -28 -2 -38 -16 -14 -20 -14 -20 -35 6 -11 14 -30 27 -43
29 -13 2 -22 10 -22 21 0 29 -24 36 -69 18 -45 -17 -75 -46 -76 -73 0 -10 -5
-18 -11 -18 -5 0 -8 -4 -5 -9 3 -5 -10 -18 -30 -30 -26 -16 -58 -22 -127 -26
-149 -8 -179 -13 -232 -38 -79 -37 -389 -85 -564 -87 -63 -1 -119 -4 -124 -7
-5 -3 -15 -21 -23 -40 -17 -41 -38 -51 -59 -29 -9 9 -23 16 -31 16 -9 0 -22 7
-30 15 -9 8 -33 18 -55 21 -29 5 -54 20 -87 51 -63 60 -89 69 -117 43 -15 -14
-24 -17 -32 -9 -8 8 -13 7 -18 -1 -8 -12 -9 -12 -83 60 -24 23 -47 53 -52 66
-6 14 -18 24 -29 24 -10 0 -25 7 -32 16 -7 9 -36 29 -64 45 -27 16 -68 44 -89
64 -22 19 -43 35 -47 35 -12 0 -20 -33 -26 -108 -5 -61 -9 -72 -24 -72 -11 0
-20 8 -20 18 -1 9 -3 31 -5 47 -2 17 -4 43 -4 59 -1 17 -7 41 -15 55 -8 15
-33 64 -56 111 -22 47 -44 87 -48 90 -9 7 -47 93 -44 101 1 3 -9 17 -22 29
-14 13 -25 27 -25 32 0 23 -57 57 -96 58 -34 0 -43 4 -52 25 -7 14 -12 38 -12
52 0 26 -81 111 -215 226 -70 60 -95 87 -133 142 -15 22 -30 42 -34 43 -5 2
-8 8 -8 14 0 13 -31 37 -48 38 -13 0 -52 41 -84 89 -11 16 -18 45 -18 74 0 33
-6 54 -19 68 -10 11 -24 42 -31 67 -14 55 -23 63 -61 52 -22 -7 -29 -5 -29 5
0 7 6 16 13 18 9 4 9 6 0 6 -7 1 -13 8 -13 17 0 8 4 12 10 9 16 -10 12 7 -5
19 -18 14 -22 144 -6 196 6 19 11 41 11 47 0 19 -20 16 -27 -4 -4 -10 -17 -32
-30 -49 -13 -17 -23 -38 -23 -47 0 -10 -4 -17 -10 -17 -14 0 -28 62 -19 86 6
16 2 27 -17 45 -13 12 -24 17 -24 11 0 -18 -27 -14 -34 5 -4 9 -4 36 0 59 7
47 -3 76 -17 53 -7 -11 -11 -10 -24 6 -9 11 -20 30 -25 43 -5 12 -20 26 -33
31 -14 5 -27 16 -30 25 -4 9 -21 22 -39 29 -29 13 -37 12 -71 -5 -21 -10 -37
-26 -37 -36 0 -19 -65 -159 -85 -182 -7 -8 -18 -33 -24 -55 -6 -22 -22 -62
-36 -89 -14 -27 -25 -56 -25 -63 0 -15 -26 -80 -66 -169 -57 -126 -54 -45 -54
-1241 l0 -1103 3680 0 3680 0 0 1105 0 1104 -29 58 c-47 92 -71 198 -71 310 0
112 18 156 70 176 l30 11 0 243 c0 223 -5 266 -25 233 -3 -6 -34 -24 -68 -42
-34 -17 -82 -42 -107 -55 -100 -52 -269 -105 -410 -130 -52 -9 -96 -17 -98
-18 -1 -1 0 -10 4 -19 4 -10 13 -15 24 -11 12 4 27 -4 44 -21 20 -23 27 -25
40 -15 13 11 17 6 27 -31 15 -50 19 -134 8 -163 -4 -11 -11 -38 -14 -59 -4
-25 -9 -35 -14 -27 -6 9 -15 2 -30 -23 -22 -36 -58 -53 -85 -43 -8 3 -16 2
-18 -2 -2 -5 -24 -10 -50 -13 -50 -6 -108 18 -108 45 0 7 -13 23 -30 35 -16
13 -30 28 -30 36 0 7 -10 18 -23 25 -12 6 -29 25 -39 41 -14 25 -22 28 -62 28
-25 0 -46 -1 -46 -2 0 -20 25 -66 36 -66 8 0 14 -10 14 -25 0 -15 6 -25 14
-25 17 0 31 -33 16 -38 -7 -3 -6 -10 5 -22 12 -13 13 -20 5 -25 -7 -4 -16 -1
-21 6 -6 10 -9 7 -9 -12 0 -27 -60 -92 -67 -73 -2 6 -20 -4 -39 -23 -19 -18
-43 -33 -52 -33 -9 0 -37 -18 -61 -40 -24 -21 -48 -37 -54 -33 -5 3 -22 -4
-38 -16 -15 -11 -35 -21 -43 -21 -25 0 -26 -29 -1 -59 14 -16 28 -43 31 -61 6
-26 2 -34 -17 -48 -24 -17 -40 -22 -139 -43 -30 -6 -73 -17 -95 -24 -48 -16
-288 -12 -293 4 -2 7 -14 5 -33 -4 -21 -11 -66 -16 -159 -18 -71 -1 -130 -6
-130 -10 0 -5 -4 -5 -10 -2 -6 4 -6 -4 1 -21 9 -24 7 -30 -12 -45 -36 -27
-103 -18 -184 24 -38 20 -99 50 -135 67 -118 56 -143 74 -250 180 -93 92 -200
230 -200 257 0 5 -6 10 -13 10 -24 0 -95 55 -101 78 -3 13 -27 55 -53 92 -56
82 -107 196 -129 289 -13 57 -15 107 -10 294 9 325 19 441 50 560 14 58 28
114 31 125 10 45 192 328 205 320 6 -3 7 0 4 8 -3 8 6 23 20 35 14 11 26 24
26 28 1 15 65 84 79 84 6 0 10 4 6 9 -3 5 22 36 55 68 33 31 60 61 60 66 0 12
79 117 88 117 5 0 24 15 44 33 58 53 116 97 127 97 6 0 11 4 11 10 0 5 21 24
48 41 50 35 70 51 104 87 12 12 28 22 35 22 7 0 13 5 13 11 0 5 4 8 9 5 4 -3
19 6 31 19 13 14 32 25 42 25 10 0 18 3 18 8 0 4 9 12 19 17 80 41 111 60 111
67 0 4 6 8 13 8 6 0 39 20 72 45 33 25 65 45 71 45 7 0 14 6 17 13 2 6 26 18
53 26 27 8 73 27 102 42 29 16 60 29 68 29 8 0 14 5 14 11 0 12 59 38 98 43
15 2 32 5 37 6 33 8 47 -4 73 -62 36 -80 54 -96 87 -78 19 10 27 11 39 1 17
-14 63 -3 126 30 42 23 74 24 149 4 69 -17 119 -19 284 -10 108 7 139 5 205
-11 l77 -19 -95 -10 c-75 -9 -89 -13 -67 -19 15 -5 27 -12 27 -16 0 -14 -28
-19 -85 -14 -46 3 -63 0 -85 -16 -15 -11 -34 -20 -42 -20 -7 0 -19 -9 -26 -21
-10 -15 -16 -18 -26 -10 -10 8 -22 8 -40 1 -15 -5 -45 -10 -68 -10 -32 0 -46
6 -68 30 -19 21 -30 26 -34 18 -5 -10 -7 -10 -12 0 -8 17 -21 15 -21 -3 0 -8
9 -15 19 -15 10 0 18 -3 18 -6 0 -13 -46 -43 -67 -44 -26 0 -42 -20 -16 -20
10 0 29 -9 43 -20 30 -24 46 -25 54 -4 3 9 12 14 19 11 6 -2 20 0 30 5 11 5
17 5 17 -2 0 -5 18 -17 41 -26 37 -15 39 -19 34 -45 -4 -16 -3 -30 2 -30 4 -1
25 -3 46 -4 35 -2 58 -10 110 -37 15 -7 18 -6 15 9 -2 10 -12 18 -23 18 -11 0
-24 6 -28 13 -4 6 -14 12 -22 12 -20 0 -40 39 -23 45 7 2 45 16 83 31 80 31
164 40 229 26 49 -10 66 -1 80 45 10 31 47 51 125 68 39 8 85 21 103 28 33 14
33 14 -42 20 -87 8 -120 16 -120 28 0 5 11 27 25 49 14 22 25 46 25 55 0 19
-63 51 -120 60 -25 3 -78 17 -117 30 -43 14 -125 29 -198 37 -183 18 -158 38
47 38 91 0 137 -6 260 -35 83 -20 158 -40 168 -45 15 -8 25 -3 54 27 19 21 41
48 48 61 11 21 10 26 -7 38 -11 8 -38 19 -60 24 -137 35 -195 54 -195 66 0 23
53 21 118 -3 46 -17 62 -13 43 11 -18 22 -78 39 -112 32 -21 -4 -29 -2 -29 8
0 32 64 34 140 5 165 -62 159 -61 195 -7 26 39 40 79 90 253 13 44 30 100 39
124 14 37 16 98 16 392 l0 349 -1320 0 c-925 0 -1320 -3 -1320 -11z m60 -939
c0 -5 -4 -10 -10 -10 -5 0 -10 5 -10 10 0 6 5 10 10 10 6 0 10 -4 10 -10z
m-300 -110 c0 -17 7 -20 39 -20 33 0 40 4 44 23 3 12 4 2 3 -23 -1 -30 -5 -44
-13 -42 -9 1 -13 -10 -13 -33 0 -34 -5 -43 -40 -82 -14 -15 -15 -15 -18 0 -2
9 -13 17 -24 17 -16 0 -19 5 -16 25 5 22 3 25 -16 19 -11 -4 -22 -11 -24 -15
-2 -5 -11 -9 -20 -9 -11 0 -4 -8 17 -22 31 -20 32 -22 15 -35 -10 -7 -23 -13
-28 -13 -6 0 -4 -5 4 -10 11 -7 4 -10 -27 -10 -32 0 -43 -4 -43 -15 0 -10 -10
-15 -30 -15 -19 0 -30 5 -30 14 0 8 -9 18 -20 21 -21 7 -27 30 -11 40 5 3 12
-5 14 -17 2 -13 5 -2 6 25 0 26 -3 47 -9 47 -5 0 -10 10 -10 23 0 13 3 17 8
11 4 -6 18 -10 32 -8 14 1 28 3 32 3 4 1 5 8 2 16 -3 8 0 29 8 46 13 31 14 31
71 25 52 -5 57 -4 57 14 0 13 7 20 20 20 13 0 20 -7 20 -20z m405 -100 c-6
-36 -5 -40 14 -40 12 0 21 6 21 13 0 8 9 22 19 31 19 17 20 17 31 -4 11 -20
10 -42 -6 -121 -3 -16 -14 -29 -25 -32 -11 -3 -23 -15 -26 -26 -3 -12 -12 -21
-19 -21 -8 0 -14 -4 -14 -10 0 -5 -9 -10 -20 -10 -11 0 -20 4 -20 9 0 5 -8 11
-17 13 -13 2 -9 11 20 42 30 31 37 47 37 77 0 22 -4 39 -10 39 -5 0 -10 18
-10 40 0 30 4 40 16 40 13 0 15 -7 9 -40z m118 28 c4 -10 8 -9 16 2 17 25 24
3 10 -34 -16 -44 -29 -46 -29 -6 0 17 -4 30 -10 30 -5 0 -10 5 -10 10 0 14 17
12 23 -2z m-225 -165 c-10 -2 -28 -2 -40 0 -13 2 -5 4 17 4 22 1 32 -1 23 -4z
m-688 -18 c10 -12 10 -15 -4 -15 -9 0 -16 -8 -16 -20 0 -13 -7 -20 -20 -20
-22 0 -26 20 -10 51 13 23 33 25 50 4z m750 -95 c0 -23 -4 -30 -20 -30 -13 0
-20 -7 -20 -20 0 -16 -7 -20 -30 -20 -23 0 -30 -4 -30 -20 0 -11 -4 -20 -10
-20 -5 0 -10 9 -10 20 0 11 5 20 10 20 6 0 10 9 10 20 0 11 5 20 10 20 6 0 10
5 10 12 0 20 32 48 57 48 19 0 23 -5 23 -30z m37 -186 c-3 -3 -12 -4 -19 -1
-8 3 -5 6 6 6 11 1 17 -2 13 -5z m-1087 -849 c39 -24 46 -43 32 -75 -6 -13
-24 -17 -42 -10 -3 1 -17 3 -32 5 -31 4 -80 34 -73 45 3 4 -5 10 -17 13 -17 5
-19 9 -10 20 7 8 9 17 5 20 -3 4 17 7 46 7 38 0 62 -7 91 -25z m-2343 -27 c-3
-7 -5 -2 -5 12 0 14 2 19 5 13 2 -7 2 -19 0 -25z m983 -38 c0 -6 -6 -10 -14
-10 -16 0 -38 24 -30 33 9 8 44 -11 44 -23z m-510 10 c0 -5 -8 -10 -17 -10
-15 0 -16 2 -3 10 19 12 20 12 20 0z m550 -50 c12 -8 11 -10 -7 -10 -13 0 -23
5 -23 10 0 13 11 13 30 0z m-953 -42 c-3 -8 -6 -5 -6 6 -1 11 2 17 5 13 3 -3
4 -12 1 -19z m-181 -806 c14 -8 35 -82 28 -94 -3 -4 -13 -4 -23 2 -10 5 -21 7
-24 3 -4 -3 -12 6 -18 21 -9 20 -9 32 -1 51 12 26 19 30 38 17z m-99 -70 c6
-4 19 -26 28 -50 14 -34 15 -45 5 -57 -29 -34 -81 -8 -95 47 -5 19 -1 32 14
47 23 23 30 25 48 13z m1935 -987 c3 -14 1 -25 -3 -25 -5 0 -9 11 -9 25 0 14
2 25 4 25 2 0 6 -11 8 -25z"/>
<path d="M4440 5760 c0 -13 7 -20 19 -20 10 0 22 -7 25 -16 3 -8 10 -12 16 -9
15 9 12 25 -5 25 -8 0 -15 9 -15 20 0 13 -7 20 -20 20 -13 0 -20 -7 -20 -20z"/>
<path d="M4320 5722 c0 -12 3 -12 15 -2 8 7 15 13 15 15 0 1 -7 2 -15 2 -8 0
-15 -7 -15 -15z"/>
<path d="M2811 6525 c-40 -7 -85 -18 -100 -24 -14 -5 -41 -13 -58 -16 -18 -4
-33 -11 -33 -16 0 -5 -12 -12 -27 -15 -32 -7 -113 -55 -113 -66 0 -5 -7 -8
-15 -8 -8 0 -15 -4 -15 -8 0 -5 -18 -16 -39 -24 -28 -11 -45 -26 -56 -49 -8
-19 -29 -56 -45 -84 -35 -60 -36 -61 -70 -150 -48 -122 -61 -203 -60 -364 1
-99 6 -152 14 -166 24 -38 28 -76 10 -96 -16 -17 -16 -19 -1 -19 10 0 17 7 17
16 0 11 6 13 19 9 15 -4 35 11 88 66 37 40 104 109 148 153 44 45 91 96 103
114 l23 32 -21 30 c-12 17 -19 37 -16 45 6 17 52 20 61 5 8 -13 16 -12 39 5
17 13 18 18 7 42 -11 23 -10 29 4 40 14 10 22 9 41 -3 23 -15 24 -15 41 20 9
20 20 36 24 36 15 0 109 134 109 155 0 23 34 65 51 65 6 0 36 21 66 47 30 26
60 48 66 49 46 10 60 15 82 31 21 15 85 127 85 149 0 9 -69 -1 -105 -17 -32
-13 -57 -13 -65 2 -6 8 -12 9 -92 12 -25 1 -50 5 -54 10 -9 9 -23 8 -113 -8z
m-281 -741 c0 -8 -5 -12 -10 -9 -6 4 -8 11 -5 16 9 14 15 11 15 -7z"/>
<path d="M5350 6080 c0 -13 7 -20 20 -20 18 0 19 3 10 20 -6 11 -15 20 -20 20
-6 0 -10 -9 -10 -20z"/>
<path d="M2144 5396 c-18 -14 -18 -15 -1 -21 23 -9 47 1 47 20 0 19 -20 19
-46 1z"/>
<path d="M4071 5384 c0 -11 3 -14 6 -6 3 7 2 16 -1 19 -3 4 -6 -2 -5 -13z"/>
<path d="M4348 5343 c7 -3 16 -2 19 1 4 3 -2 6 -13 5 -11 0 -14 -3 -6 -6z"/>
<path d="M4250 5229 c-92 -11 -102 -13 -117 -22 -43 -27 22 -37 80 -12 41 17
104 20 109 5 2 -5 9 -6 17 -1 14 9 9 42 -6 40 -4 -1 -42 -6 -83 -10z"/>
<path d="M4385 5220 c-3 -5 -1 -10 4 -10 6 0 11 5 11 10 0 6 -2 10 -4 10 -3 0
-8 -4 -11 -10z"/>
<path d="M4063 5155 c-9 -25 4 -30 99 -35 68 -4 92 -2 101 9 21 25 -20 41
-110 41 -66 0 -85 -3 -90 -15z"/>
<path d="M4300 5150 c0 -5 5 -10 10 -10 6 0 10 5 10 10 0 6 -4 10 -10 10 -5 0
-10 -4 -10 -10z"/>
<path d="M6621 5026 c-43 -15 -50 -33 -19 -45 13 -5 25 -9 28 -9 26 -3 140
-69 140 -81 0 -3 -11 -11 -24 -17 -21 -10 -29 -8 -56 17 -17 16 -39 29 -48 29
-10 0 -23 10 -31 21 l-13 22 -21 -24 c-12 -13 -26 -24 -32 -24 -37 -1 -74 -19
-79 -38 -3 -11 -4 -23 -2 -24 7 -7 95 -15 149 -14 52 1 97 -12 167 -48 8 -5
15 -22 15 -40 1 -29 -1 -31 -37 -31 -28 0 -38 4 -38 16 0 14 -8 16 -57 10 -63
-7 -126 7 -205 43 -26 11 -49 21 -52 21 -3 0 -50 21 -103 46 -100 47 -152 59
-160 37 -3 -7 2 -13 10 -13 8 0 20 -6 26 -14 9 -11 5 -15 -19 -20 -20 -3 -37
-16 -48 -36 -9 -16 -20 -30 -24 -30 -4 0 -23 -17 -42 -37 -34 -38 -60 -41 -35
-5 26 36 65 77 85 88 29 17 29 41 0 48 -27 7 -86 -21 -86 -41 0 -7 -6 -10 -12
-8 -18 7 -66 -33 -52 -42 26 -18 39 -263 24 -428 -5 -49 -12 -124 -15 -165
l-6 -75 26 30 c89 102 110 123 117 119 7 -4 4 -53 -8 -106 -3 -16 -2 -28 2
-28 9 0 54 49 54 59 0 4 9 16 20 26 11 10 20 23 20 29 1 21 86 109 195 200
131 110 149 123 240 170 82 42 104 44 152 12 37 -26 103 -115 103 -141 0 -8 5
-14 12 -13 8 2 15 -17 19 -50 4 -29 9 -56 12 -58 7 -7 45 15 88 51 20 17 45
38 57 47 19 16 21 27 21 132 0 88 -3 117 -14 126 -8 7 -15 17 -15 22 0 6 -13
30 -30 55 -16 24 -30 48 -30 54 0 5 -7 9 -16 9 -8 0 -12 -5 -8 -11 5 -8 1 -8
-14 0 -11 6 -32 11 -47 11 -15 0 -24 4 -20 10 4 6 12 10 18 9 36 -4 86 3 102
15 28 21 7 40 -67 61 -34 9 -71 23 -82 30 -12 7 -42 18 -69 25 -26 7 -50 17
-53 21 -7 13 -73 10 -113 -5z m18 -125 c13 -11 28 -22 34 -24 7 -2 9 -7 6 -11
-5 -5 -84 20 -99 31 -5 4 21 23 31 23 3 0 16 -9 28 -19z m-402 -57 c-3 -3 -12
-4 -19 -1 -8 3 -5 6 6 6 11 1 17 -2 13 -5z"/>
<path d="M5977 4973 c-14 -14 -6 -23 38 -43 47 -21 65 -20 65 6 0 24 -86 55
-103 37z"/>
<path d="M3950 4892 c0 -14 11 -21 26 -15 21 8 17 23 -6 23 -11 0 -20 -4 -20
-8z"/>
<path d="M5807 4619 c-3 -12 -10 -18 -15 -15 -10 6 -62 -40 -62 -55 0 -5 -7
-9 -15 -9 -9 0 -27 -12 -40 -26 -13 -14 -29 -23 -35 -19 -7 4 -14 -2 -17 -14
-3 -11 -14 -23 -24 -26 -11 -4 -27 -17 -35 -31 -9 -13 -21 -24 -26 -24 -6 0
-32 -18 -58 -40 -26 -22 -57 -40 -68 -40 -12 0 -24 -4 -27 -10 -3 -5 -15 -10
-26 -10 -12 0 -23 -10 -29 -25 -7 -17 -17 -25 -35 -25 -18 0 -26 -7 -31 -25
-3 -14 -10 -23 -15 -20 -4 3 -13 -3 -19 -14 -6 -11 -29 -25 -53 -32 -56 -15
-60 -18 -46 -35 9 -11 8 -19 -7 -35 -10 -11 -19 -29 -21 -40 -2 -11 -35 -51
-74 -88 -79 -75 -86 -93 -84 -211 l0 -65 31 3 c19 2 36 -3 44 -12 7 -9 15 -14
19 -12 3 2 7 -19 9 -46 3 -42 11 -62 50 -114 26 -35 54 -63 62 -63 31 2 40 -1
40 -16 0 -8 5 -15 11 -15 21 0 74 52 85 83 9 27 12 28 24 15 16 -17 50 -12 50
6 0 16 48 112 78 156 35 52 183 218 212 238 14 9 34 19 45 22 32 9 57 75 81
220 12 75 29 165 37 200 24 104 31 214 16 255 -15 40 -24 44 -32 14z"/>
<path d="M3478 4623 c7 -3 16 -2 19 1 4 3 -2 6 -13 5 -11 0 -14 -3 -6 -6z"/>
<path d="M159 3781 c-63 -21 -125 -45 -137 -52 l-22 -14 0 -563 c0 -310 4
-561 9 -558 4 3 16 30 25 61 10 30 22 57 27 61 5 3 9 15 9 26 0 11 9 39 19 62
11 23 22 58 26 78 4 23 12 39 24 43 13 4 17 12 13 32 -3 17 0 29 12 35 9 5 16
18 16 28 0 11 4 20 9 20 5 0 14 12 20 28 17 40 38 74 51 82 6 4 13 13 14 21 2
8 8 27 14 42 7 16 12 33 12 38 0 5 4 9 8 9 5 0 9 16 10 36 1 28 9 43 32 62 34
28 37 47 14 80 -12 18 -14 36 -9 81 4 39 3 61 -4 65 -16 10 -2 54 31 100 15
21 28 48 28 60 0 27 -69 76 -107 75 -15 0 -80 -17 -144 -38z"/>
<path d="M3276 2217 c3 -10 9 -15 12 -12 3 3 0 11 -7 18 -10 9 -11 8 -5 -6z"/>
<path d="M4400 1260 c0 -5 7 -10 16 -10 8 0 12 5 9 10 -3 6 -10 10 -16 10 -5
0 -9 -4 -9 -10z"/>
<path d="M3905 990 c3 -5 8 -10 11 -10 2 0 4 5 4 10 0 6 -5 10 -11 10 -5 0 -7
-4 -4 -10z"/>
</g>
</svg>
